<?xml version="1.0" encoding="iso-8859-1"?>
<!-- Generator: Adobe Illustrator 19.0.0, SVG Export Plug-In . SVG Version: 6.00 Build 0)  -->
<svg version="1.1" id="Capa_1" xmlns="http://www.w3.org/2000/svg" xmlns:xlink="http://www.w3.org/1999/xlink" x="0px" y="0px"
	 viewBox="0 0 512.047 512.047" style="enable-background:new 0 0 512.047 512.047;" xml:space="preserve">
<path style="fill:#64B5F6;" d="M469.633,412.823c17.355-27.832,26.495-60.001,26.368-92.8c0-97.202-78.798-176-176-176
	s-176,78.798-176,176s78.798,176,176,176c32.745,0.097,64.854-9.042,92.64-26.368l63.264,25.312c1.728,0.7,3.575,1.059,5.44,1.056
	c8.077,0.021,14.641-6.509,14.662-14.586c0.005-1.888-0.356-3.759-1.062-5.51L469.633,412.823z"/>
<path style="fill:#2196F3;" d="M208.001,0.023c-114.817,0.141-207.859,93.183-208,208c-0.132,38.943,10.811,77.12,31.552,110.08
	l-30.4,75.968c-3.287,8.202,0.697,17.517,8.9,20.804c1.892,0.758,3.911,1.148,5.948,1.148c2.039-0.007,4.058-0.398,5.952-1.152
	l75.936-30.4c32.973,20.739,71.16,31.681,110.112,31.552c114.875,0,208-93.125,208-208S322.876,0.023,208.001,0.023z"/>
<path d="M16.001,416.023c-8.837-0.002-15.998-7.167-15.996-16.004c0-2.038,0.39-4.057,1.148-5.948l30.4-75.936
	c-20.739-32.973-31.681-71.16-31.552-110.112c0-114.875,93.125-208,208-208s208,93.125,208,208s-93.125,208-208,208
	c-38.952,0.129-77.139-10.813-110.112-31.552l-75.936,30.4C20.059,415.625,18.04,416.016,16.001,416.023z M99.713,350.487
	c3.259-0.002,6.441,0.992,9.12,2.848c29.149,20.112,63.754,30.821,99.168,30.688c97.202,0,176-78.798,176-176s-78.798-176-176-176
	s-176,78.798-176,176c-0.139,35.424,10.57,70.042,30.688,99.2c3.062,4.42,3.699,10.082,1.696,15.072l-19.584,48.928l49.024-19.648
	C95.702,350.845,97.7,350.476,99.713,350.487z"/>
<path d="M496.001,512.023c-2.039-0.007-4.058-0.398-5.952-1.152l-62.048-24.768c-62.7,37.415-141.83,33.048-200.032-11.04
	c-7.043-5.337-8.426-15.373-3.089-22.416c5.337-7.043,15.373-8.426,22.416-3.089c0.097,0.074,0.194,0.149,0.29,0.225
	c49.666,37.644,117.714,39.737,169.6,5.216c4.402-3.018,10.019-3.642,14.976-1.664l35.2,14.016l-14.016-35.2
	c-1.978-4.957-1.354-10.574,1.664-14.976c35.199-51.69,33.092-120.171-5.216-169.6c-5.497-6.919-4.344-16.984,2.575-22.48
	c6.919-5.497,16.984-4.344,22.48,2.575c0.076,0.096,0.151,0.192,0.225,0.29c44.881,57.908,49.276,137.537,11.04,200.032
	l24.768,62.048c3.305,8.195-0.659,17.518-8.855,20.823C500.112,511.634,498.066,512.029,496.001,512.023z"/>
<g>
</g>
<g>
</g>
<g>
</g>
<g>
</g>
<g>
</g>
<g>
</g>
<g>
</g>
<g>
</g>
<g>
</g>
<g>
</g>
<g>
</g>
<g>
</g>
<g>
</g>
<g>
</g>
<g>
</g>
</svg>
